<svg xmlns="http://www.w3.org/2000/svg" width="295.484" height="183.867"><defs><clipPath id="a"><path d="M268.888 274.28h292.361V119.174H265.765z" fill="none"/></clipPath></defs><g clip-path="url(#a)" fill="#ffc907" transform="translate(-265.766 -119.174)"><path d="M371.7 356.2a.629.629 0 01-.564-.907l83.1-169.239a.629.629 0 011.13.554l-83.1 169.24a.631.631 0 01-.566.352z"/><path d="M479.6 352.391a.629.629 0 01-.52-.273L375.692 201.651a.63.63 0 011.038-.713L480.114 351.4a.631.631 0 01-.162.876.625.625 0 01-.352.115z"/><path d="M370.44 308.855a.63.63 0 01-.46-1.059l119.332-127.62a.629.629 0 11.919.859L370.9 308.655a.627.627 0 01-.46.2z"/><path d="M494.583 316.114a.628.628 0 01-.358-.112L334.986 205.836a.63.63 0 01.717-1.035l159.239 110.166a.63.63 0 01-.359 1.147z"/><path d="M333.759 315.745a.63.63 0 01-.337-1.131l155.611-106.32a.63.63 0 01.758 1.006L334.179 315.62a.627.627 0 01-.42.125z"/><path d="M511.346 293.546a.63.63 0 01-.179-.035l-185.178-64.594a.629.629 0 11.414-1.188l185.179 64.594a.629.629 0 01-.236 1.223z"/><path d="M309.293 319.993a.629.629 0 01-.314-1.175l105.271-60.451a.63.63 0 01.627 1.092L309.606 319.91a.635.635 0 01-.313.083z"/><path d="M416.964 264.011a.629.629 0 01-.606-.464l-27.142-99.615a.63.63 0 011.215-.33l27.141 99.614a.629.629 0 01-.608.795z"/><path d="M402.144 261.052a.629.629 0 01-.043-1.254l79.868-8.946a.629.629 0 01.14 1.251l-79.868 8.946a.531.531 0 01-.097.003zM413.235 256.228a.629.629 0 01-.229-1.234l87.709-23.614a.629.629 0 11.325 1.216l-87.709 23.614a.539.539 0 01-.096.018z"/><path d="M501.132 264.075a.4.4 0 01-.077 0L318.57 250.136a.63.63 0 01-.581-.674.62.62 0 01.674-.581l182.485 13.938a.629.629 0 01-.016 1.256z"/><path d="M408.469 351.974a.8.8 0 01-.084 0 .63.63 0 01-.56-.692l19.425-183.947a.629.629 0 011.252.132l-19.425 183.944a.629.629 0 01-.608.563z"/><path d="M457.893 344.688a.63.63 0 01-.629-.341l-86.193-169.135a.629.629 0 111.121-.571l86.194 169.135a.63.63 0 01-.493.912z"/><path d="M416.964 264.011a.63.63 0 01-.628-.6l-3.717-92.643a.629.629 0 011.257-.051l3.718 92.643a.628.628 0 01-.6.654z"/><circle cx="8.45" cy="8.45" r="8.45" transform="rotate(-2.706 5266.644 -6437.144)"/><path d="M332.448 228.607a6.258 6.258 0 11-5.968-6.536 6.258 6.258 0 015.968 6.536z"/><circle cx="7.212" cy="7.212" r="7.212" transform="rotate(-76.717 314.33 -128.874)"/><path d="M496.217 180.982a6.391 6.391 0 11-6.391-6.392 6.391 6.391 0 016.391 6.392zM460.815 186.333a6.017 6.017 0 11-6.017-6.018 6.017 6.017 0 016.017 6.018zM434.651 167.214a6.778 6.778 0 11-6.963-6.588 6.778 6.778 0 016.963 6.588zM349.067 327.239a7.8 7.8 0 11-7.8-7.8 7.8 7.8 0 017.8 7.8zM323.17 293.117a7.614 7.614 0 11-7.614-7.615 7.614 7.614 0 017.614 7.615zM343.294 203.759a7.95 7.95 0 11-7.95-7.951 7.95 7.95 0 017.95 7.951zM318.846 319.364a9.553 9.553 0 11-9.554-9.553 9.554 9.554 0 019.554 9.553z"/><circle cx="7.518" cy="7.518" r="7.518" transform="translate(364.113 167.409)"/><circle cx="7.657" cy="7.657" r="7.657" transform="rotate(-22.5 1090.737 -929.618)"/><circle cx="7.657" cy="7.657" r="7.657" transform="rotate(-45 619.722 -298.475)"/><circle cx="9.136" cy="9.136" r="9.136" transform="translate(362.561 346.437)"/><circle cx="9.032" cy="9.032" r="9.032" transform="rotate(-45 579.596 -216.108)"/><circle cx="9.367" cy="9.367" r="9.367" transform="translate(470.228 342.395)"/><circle cx="8.063" cy="8.063" r="8.063" transform="rotate(-22.5 1024.08 -1061.176)"/><path d="M519.567 288.557a6.692 6.692 0 11-6.691-6.691 6.692 6.692 0 016.691 6.691zM508.252 263.109a7.158 7.158 0 11-7.488-6.812 7.157 7.157 0 017.488 6.812z"/><circle cx="5.474" cy="5.474" r="5.474" transform="rotate(-87.55 372.134 -120.22)"/><circle cx="8.256" cy="8.256" r="8.256" transform="rotate(-80.783 366.688 -174.269)"/><circle cx="6.085" cy="6.085" r="6.085" transform="rotate(-22.5 632.328 -933.314)"/><circle cx="9.009" cy="9.009" r="9.009" transform="rotate(-76.717 297.19 -154.203)"/><circle cx="17.974" cy="17.974" r="17.974" transform="rotate(-67.5 397.508 -158.87)"/><circle cx="6.107" cy="6.107" r="6.107" transform="rotate(-48.072 458.092 -246.876)"/><circle cx="7.579" cy="7.579" r="7.579" transform="translate(373.235 227.448)"/><circle cx="8.44" cy="8.44" r="8.44" transform="rotate(-10.89 1661.112 -2299.227)"/><circle cx="7.875" cy="7.875" r="7.875" transform="rotate(-22.5 1005.635 -916.153)"/><circle cx="7.579" cy="7.579" r="7.579" transform="translate(373.235 299.842)"/><path d="M404.28 259.812h-.044l-57.719-.866a.631.631 0 01-.62-.639.645.645 0 01.639-.621l57.719.867a.63.63 0 01.025 1.258zM380.813 308.051a.629.629 0 01-.509-1l33.522-46.451a.629.629 0 111.02.737l-33.522 46.453a.626.626 0 01-.511.261zM474.338 279.885a.609.609 0 01-.2-.033l-58.69-19.807a.629.629 0 01.4-1.193l58.69 19.808a.629.629 0 01-.2 1.225z"/><circle cx="5.794" cy="5.794" r="5.794" transform="translate(495.246 226.802)"/><circle cx="7.705" cy="7.705" r="7.705" transform="translate(441.003 217.306)"/></g><path d="M22.357 152.392c8.463 0 8.463 5.428 16.925 5.428s8.462-5.428 16.924-5.428 8.461 5.428 16.921 5.428 8.461-5.428 16.922-5.428 8.462 5.428 16.924 5.428 8.463-5.428 16.926-5.428 8.462 5.428 16.924 5.428 8.463-5.428 16.925-5.428 8.463 5.428 16.926 5.428 8.464-5.428 16.928-5.428 8.461 5.428 16.923 5.428 8.464-5.428 16.929-5.428 8.465 5.428 16.93 5.428 8.466-5.428 16.932-5.428 8.466 5.428 16.932 5.428" fill="none" stroke="#56af8d" stroke-miterlimit="10" stroke-width="10.891"/><path d="M22.357 172.995c8.463 0 8.463 5.427 16.925 5.427s8.462-5.427 16.924-5.427 8.461 5.427 16.921 5.427 8.461-5.427 16.922-5.427 8.462 5.427 16.924 5.427 8.463-5.427 16.926-5.427 8.462 5.427 16.924 5.427 8.463-5.427 16.925-5.427 8.463 5.427 16.926 5.427 8.464-5.427 16.928-5.427 8.461 5.427 16.923 5.427 8.464-5.427 16.929-5.427 8.465 5.427 16.93 5.427 8.466-5.427 16.932-5.427 8.466 5.427 16.932 5.427" fill="none" stroke="#c9ca00" stroke-miterlimit="10" stroke-width="10.891"/></svg>