<svg xmlns="http://www.w3.org/2000/svg" width="39.189" height="39.189"><path d="M19.594 30.134a10.284 10.284 0 1110.285-10.281 10.3 10.3 0 01-10.285 10.281zm0-18.266a7.982 7.982 0 107.983 7.983 7.991 7.991 0 00-7.983-7.98zM19.594 7.402a1.151 1.151 0 01-1.151-1.151v-5.1a1.151 1.151 0 112.3 0v5.1a1.151 1.151 0 01-1.149 1.151zM19.594 39.189a1.151 1.151 0 01-1.151-1.146v-5.1a1.151 1.151 0 112.3 0v5.1a1.151 1.151 0 01-1.149 1.146zM6.252 20.746h-5.1a1.151 1.151 0 110-2.3h5.1a1.151 1.151 0 010 2.3zM38.038 20.746h-5.1a1.151 1.151 0 110-2.3h5.1a1.151 1.151 0 110 2.3zM10.161 11.309a1.145 1.145 0 01-.814-.337L5.739 7.364a1.151 1.151 0 111.627-1.627l3.608 3.608a1.151 1.151 0 01-.814 1.965zM32.635 33.787a1.146 1.146 0 01-.814-.337l-3.607-3.608a1.151 1.151 0 011.627-1.627l3.608 3.611a1.151 1.151 0 01-.814 1.965zM6.555 33.787a1.151 1.151 0 01-.814-1.965l3.608-3.608a1.151 1.151 0 011.627 1.627l-3.608 3.608a1.148 1.148 0 01-.813.338zM29.031 11.309a1.151 1.151 0 01-.814-1.965l3.608-3.608a1.151 1.151 0 011.627 1.627l-3.608 3.608a1.147 1.147 0 01-.813.338z" fill="#fff"/></svg>