<svg xmlns="http://www.w3.org/2000/svg" xmlns:xlink="http://www.w3.org/1999/xlink" width="295.484" height="183.867" viewBox="0 0 295.484 183.867"><defs><clipPath id="a"><path d="M268.888,274.28H561.249V119.174H265.765Z" fill="none"/></clipPath></defs><g transform="translate(-265.766 -119.174)"><g clip-path="url(#a)"><path d="M371.7,356.2a.629.629,0,0,1-.564-.907l83.1-169.239a.629.629,0,0,1,1.13.554l-83.1,169.24A.631.631,0,0,1,371.7,356.2Z" fill="#ffc907"/><path d="M479.6,352.391a.629.629,0,0,1-.52-.273L375.692,201.651a.63.63,0,0,1,1.038-.713L480.114,351.4a.631.631,0,0,1-.162.876A.625.625,0,0,1,479.6,352.391Z" fill="#ffc907"/><path d="M370.44,308.855a.63.63,0,0,1-.46-1.059l119.332-127.62a.629.629,0,1,1,.919.859L370.9,308.655A.627.627,0,0,1,370.44,308.855Z" fill="#ffc907"/><path d="M494.583,316.114a.628.628,0,0,1-.358-.112L334.986,205.836a.63.63,0,0,1,.717-1.035L494.942,314.967a.63.63,0,0,1-.359,1.147Z" fill="#ffc907"/><path d="M333.759,315.745a.63.63,0,0,1-.337-1.131l155.611-106.32a.63.63,0,0,1,.758,1.006L334.179,315.62A.627.627,0,0,1,333.759,315.745Z" fill="#ffc907"/><path d="M511.346,293.546a.63.63,0,0,1-.179-.035L325.989,228.917a.629.629,0,1,1,.414-1.188l185.179,64.594a.629.629,0,0,1-.236,1.223Z" fill="#ffc907"/><path d="M309.293,319.993a.629.629,0,0,1-.314-1.175L414.25,258.367a.63.63,0,0,1,.627,1.092L309.606,319.91A.635.635,0,0,1,309.293,319.993Z" fill="#ffc907"/><path d="M416.964,264.011a.629.629,0,0,1-.606-.464l-27.142-99.615a.63.63,0,0,1,1.215-.33l27.141,99.614a.629.629,0,0,1-.608.795Z" fill="#ffc907"/><path d="M402.144,261.052a.629.629,0,0,1-.043-1.254l79.868-8.946a.629.629,0,0,1,.14,1.251l-79.868,8.946A.531.531,0,0,1,402.144,261.052Z" fill="#ffc907"/><path d="M413.235,256.228a.629.629,0,0,1-.229-1.234l87.709-23.614a.629.629,0,1,1,.325,1.216L413.331,256.21A.539.539,0,0,1,413.235,256.228Z" fill="#ffc907"/><path d="M501.132,264.075a.4.4,0,0,1-.077,0L318.57,250.136a.63.63,0,0,1-.581-.674.62.62,0,0,1,.674-.581l182.485,13.938a.629.629,0,0,1-.016,1.256Z" fill="#ffc907"/><path d="M408.469,351.974a.8.8,0,0,1-.084,0,.63.63,0,0,1-.56-.692L427.25,167.335a.629.629,0,0,1,1.252.132L409.077,351.411A.629.629,0,0,1,408.469,351.974Z" fill="#ffc907"/><path d="M457.893,344.688a.63.63,0,0,1-.629-.341L371.071,175.212a.629.629,0,1,1,1.121-.571l86.194,169.135a.63.63,0,0,1-.493.912Z" fill="#ffc907"/><path d="M416.964,264.011a.63.63,0,0,1-.628-.6l-3.717-92.643a.629.629,0,0,1,1.257-.051l3.718,92.643a.628.628,0,0,1-.6.654Z" fill="#ffc907"/><circle cx="8.45" cy="8.45" r="8.45" transform="translate(309.777 241.466) rotate(-2.706)" fill="#ffc907"/><path d="M332.448,228.607a6.258,6.258,0,1,1-5.968-6.536A6.258,6.258,0,0,1,332.448,228.607Z" fill="#ffc907"/><circle cx="7.212" cy="7.212" r="7.212" transform="translate(367.535 206.657) rotate(-76.717)" fill="#ffc907"/><path d="M496.217,180.982a6.391,6.391,0,1,1-6.391-6.392A6.391,6.391,0,0,1,496.217,180.982Z" fill="#ffc907"/><path d="M460.815,186.333a6.017,6.017,0,1,1-6.017-6.018A6.017,6.017,0,0,1,460.815,186.333Z" fill="#ffc907"/><path d="M434.651,167.214a6.778,6.778,0,1,1-6.963-6.588A6.778,6.778,0,0,1,434.651,167.214Z" fill="#ffc907"/><path d="M349.067,327.239a7.8,7.8,0,1,1-7.8-7.8A7.8,7.8,0,0,1,349.067,327.239Z" fill="#ffc907"/><path d="M323.17,293.117a7.614,7.614,0,1,1-7.614-7.615A7.614,7.614,0,0,1,323.17,293.117Z" fill="#ffc907"/><path d="M343.294,203.759a7.95,7.95,0,1,1-7.95-7.951A7.95,7.95,0,0,1,343.294,203.759Z" fill="#ffc907"/><path d="M318.846,319.364a9.553,9.553,0,1,1-9.554-9.553A9.554,9.554,0,0,1,318.846,319.364Z" fill="#ffc907"/><circle cx="7.518" cy="7.518" r="7.518" transform="translate(364.113 167.409)" fill="#ffc907"/><circle cx="7.657" cy="7.657" r="7.657" transform="translate(438.777 346.644) rotate(-22.5)" fill="#ffc907"/><circle cx="7.657" cy="7.657" r="7.657" transform="translate(392.566 350.788) rotate(-45)" fill="#ffc907"/><circle cx="9.136" cy="9.136" r="9.136" transform="translate(362.561 346.437)" fill="#ffc907"/><circle cx="9.032" cy="9.032" r="9.032" transform="translate(322.571 346.54) rotate(-45)" fill="#ffc907"/><circle cx="9.367" cy="9.367" r="9.367" transform="translate(470.228 342.395)" fill="#ffc907"/><circle cx="8.063" cy="8.063" r="8.063" transform="translate(484.048 311.121) rotate(-22.5)" fill="#ffc907"/><path d="M519.567,288.557a6.692,6.692,0,1,1-6.691-6.691A6.692,6.692,0,0,1,519.567,288.557Z" fill="#ffc907"/><path d="M508.252,263.109a7.158,7.158,0,1,1-7.488-6.812A7.157,7.157,0,0,1,508.252,263.109Z" fill="#ffc907"/><circle cx="5.474" cy="5.474" r="5.474" transform="translate(476.336 256.713) rotate(-87.55)" fill="#ffc907"/><circle cx="8.256" cy="8.256" r="8.256" transform="translate(479.973 215.598) rotate(-80.783)" fill="#ffc907"/><circle cx="6.085" cy="6.085" r="6.085" transform="translate(405.297 170.937) rotate(-22.5)" fill="#ffc907"/><circle cx="9.009" cy="9.009" r="9.009" transform="translate(378.985 170.466) rotate(-76.717)" fill="#ffc907"/><circle cx="17.974" cy="17.974" r="17.974" transform="translate(392.165 269.176) rotate(-67.5)" fill="#ffc907"/><circle cx="6.107" cy="6.107" r="6.107" transform="translate(335.669 258.899) rotate(-48.072)" fill="#ffc907"/><circle cx="7.579" cy="7.579" r="7.579" transform="translate(373.235 227.448)" fill="#ffc907"/><circle cx="8.44" cy="8.44" r="8.44" transform="matrix(0.982, -0.189, 0.189, 0.982, 464.454, 272.564)" fill="#ffc907"/><circle cx="7.875" cy="7.875" r="7.875" transform="translate(427.146 315.102) rotate(-22.5)" fill="#ffc907"/><circle cx="7.579" cy="7.579" r="7.579" transform="translate(373.235 299.842)" fill="#ffc907"/><path d="M404.28,259.812h-.044l-57.719-.866a.631.631,0,0,1-.62-.639.645.645,0,0,1,.639-.621l57.719.867a.63.63,0,0,1,.025,1.258Z" fill="#ffc907"/><path d="M380.813,308.051a.629.629,0,0,1-.509-1L413.826,260.6a.629.629,0,1,1,1.02.737L381.324,307.79A.626.626,0,0,1,380.813,308.051Z" fill="#ffc907"/><path d="M474.338,279.885a.609.609,0,0,1-.2-.033l-58.69-19.807a.629.629,0,0,1,.4-1.193l58.69,19.808a.629.629,0,0,1-.2,1.225Z" fill="#ffc907"/><circle cx="5.794" cy="5.794" r="5.794" transform="translate(495.246 226.802)" fill="#ffc907"/><circle cx="7.705" cy="7.705" r="7.705" transform="translate(441.003 217.306)" fill="#ffc907"/></g><path d="M288.123,271.566c8.463,0,8.463,5.428,16.925,5.428s8.462-5.428,16.924-5.428,8.461,5.428,16.921,5.428,8.461-5.428,16.922-5.428,8.462,5.428,16.924,5.428,8.463-5.428,16.926-5.428,8.462,5.428,16.924,5.428,8.463-5.428,16.925-5.428,8.463,5.428,16.926,5.428,8.464-5.428,16.928-5.428,8.461,5.428,16.923,5.428,8.464-5.428,16.929-5.428,8.465,5.428,16.93,5.428,8.466-5.428,16.932-5.428,8.466,5.428,16.932,5.428" fill="none" stroke="#56af8d" stroke-miterlimit="10" stroke-width="10.891"/><path d="M288.123,292.169c8.463,0,8.463,5.427,16.925,5.427s8.462-5.427,16.924-5.427,8.461,5.427,16.921,5.427,8.461-5.427,16.922-5.427,8.462,5.427,16.924,5.427,8.463-5.427,16.926-5.427,8.462,5.427,16.924,5.427,8.463-5.427,16.925-5.427,8.463,5.427,16.926,5.427,8.464-5.427,16.928-5.427,8.461,5.427,16.923,5.427,8.464-5.427,16.929-5.427,8.465,5.427,16.93,5.427,8.466-5.427,16.932-5.427,8.466,5.427,16.932,5.427" fill="none" stroke="#c9ca00" stroke-miterlimit="10" stroke-width="10.891"/></g></svg>