<svg xmlns="http://www.w3.org/2000/svg" width="39.189" height="39.189" viewBox="0 0 39.189 39.189"><g transform="translate(-16.227 -17.506)"><g transform="translate(25.537 27.075)"><path d="M42.69,54.7A10.284,10.284,0,1,1,52.975,44.419,10.3,10.3,0,0,1,42.69,54.7Zm0-18.266a7.982,7.982,0,1,0,7.983,7.983A7.991,7.991,0,0,0,42.69,36.437Z" transform="translate(-32.406 -34.135)" fill="#fff"/></g><g transform="translate(34.67 17.506)"><path d="M49.428,24.908a1.151,1.151,0,0,1-1.151-1.151v-5.1a1.151,1.151,0,1,1,2.3,0v5.1A1.151,1.151,0,0,1,49.428,24.908Z" transform="translate(-48.277 -17.506)" fill="#fff"/></g><g transform="translate(34.67 49.292)"><path d="M49.428,80.146A1.151,1.151,0,0,1,48.277,79v-5.1a1.151,1.151,0,1,1,2.3,0V79A1.151,1.151,0,0,1,49.428,80.146Z" transform="translate(-48.277 -72.743)" fill="#fff"/></g><g transform="translate(16.227 35.95)"><path d="M22.479,51.86h-5.1a1.151,1.151,0,1,1,0-2.3h5.1a1.151,1.151,0,0,1,0,2.3Z" transform="translate(-16.227 -49.558)" fill="#fff"/></g><g transform="translate(48.013 35.95)"><path d="M77.717,51.86h-5.1a1.151,1.151,0,1,1,0-2.3h5.1a1.151,1.151,0,1,1,0,2.3Z" transform="translate(-71.465 -49.558)" fill="#fff"/></g><g transform="translate(21.629 22.908)"><path d="M30.373,32.8a1.145,1.145,0,0,1-.814-.337l-3.608-3.608a1.151,1.151,0,1,1,1.627-1.627l3.608,3.608a1.151,1.151,0,0,1-.814,1.965Z" transform="translate(-25.614 -26.893)" fill="#fff"/></g><g transform="translate(44.104 45.383)"><path d="M69.43,71.861a1.146,1.146,0,0,1-.814-.337l-3.607-3.608a1.151,1.151,0,0,1,1.627-1.627L70.244,69.9a1.151,1.151,0,0,1-.814,1.965Z" transform="translate(-64.672 -65.951)" fill="#fff"/></g><g transform="translate(21.631 45.383)"><path d="M26.769,71.861a1.151,1.151,0,0,1-.814-1.965l3.608-3.608a1.151,1.151,0,0,1,1.627,1.627l-3.608,3.608A1.148,1.148,0,0,1,26.769,71.861Z" transform="translate(-25.618 -65.951)" fill="#fff"/></g><g transform="translate(44.107 22.908)"><path d="M65.828,32.8a1.151,1.151,0,0,1-.814-1.965l3.608-3.608a1.151,1.151,0,0,1,1.627,1.627l-3.608,3.608A1.147,1.147,0,0,1,65.828,32.8Z" transform="translate(-64.677 -26.893)" fill="#fff"/></g></g></svg>